<svg xmlns="http://www.w3.org/2000/svg" xmlns:xlink="http://www.w3.org/1999/xlink" viewBox="0 0 84 36" fill="#fff" fill-rule="evenodd" stroke="#000" stroke-linecap="round" stroke-linejoin="round"><use xlink:href="#A" x=".5" y=".5"/><symbol id="A" overflow="visible"><path d="M82.759 17.79c0-5.885-2.85-10.53-8.3-10.53-5.47 0-8.782 4.644-8.782 10.483 0 6.92 3.908 10.414 9.517 10.414 2.736 0 4.805-.62 6.368-1.494v-4.598c-1.563.782-3.356 1.264-5.632 1.264-2.23 0-4.207-.782-4.46-3.494h11.24c0-.3.046-1.494.046-2.046zm-11.347-2.183c0-2.598 1.586-3.678 3.035-3.678 1.402 0 2.897 1.08 2.897 3.678zM56.815 7.262c-2.253 0-3.7 1.057-4.506 1.793l-.3-1.425h-5.067v26.805l5.747-1.218.023-6.506c.828.598 2.046 1.448 4.07 1.448 4.115 0 7.862-3.3 7.862-10.598-.023-6.667-3.816-10.3-7.84-10.3zm-1.38 15.84c-1.356 0-2.16-.483-2.713-1.08l-.023-8.53c.598-.667 1.425-1.126 2.736-1.126 2.092 0 3.54 2.345 3.54 5.356 0 3.08-1.425 5.38-3.54 5.38zm-16.4-17.196l5.77-1.24V0l-5.77 1.218zm0 1.747h5.77v20.115h-5.77zm-6.185 1.7l-.368-1.7h-4.966V27.77h5.747V14.136c1.356-1.77 3.655-1.448 4.368-1.195V7.654c-.736-.276-3.425-.782-4.782 1.7zm-11.494-6.7L15.747 3.85l-.023 18.414c0 3.402 2.552 5.908 5.954 5.908 1.885 0 3.264-.345 4.023-.76v-4.667c-.736.3-4.368 1.356-4.368-2.046V12.55h4.368V7.653h-4.37zM5.816 13.48c0-.897.736-1.24 1.954-1.24a12.85 12.85 0 0 1 5.7 1.47V8.32c-1.908-.76-3.793-1.057-5.7-1.057C3.103 7.263 0 9.7 0 13.769c0 6.345 8.736 5.333 8.736 8.07 0 1.057-.92 1.402-2.207 1.402-1.908 0-4.345-.782-6.276-1.84v5.47c2.138.92 4.3 1.3 6.276 1.3 4.782 0 8.07-2.368 8.07-6.483-.023-6.85-8.782-5.632-8.782-8.207z" stroke="none" fill="#6772e5"/></symbol></svg>